<?xml version="1.0" encoding="UTF-8" standalone="no"?>
<!DOCTYPE svg PUBLIC "-//W3C//DTD SVG 1.1//EN"
 "http://www.w3.org/Graphics/SVG/1.1/DTD/svg11.dtd">
<!-- Generated by graphviz version 2.43.0 (0)
 -->
<!-- Title: G Pages: 1 -->
<svg width="670pt" height="248pt"
 viewBox="0.00 0.00 669.88 247.78" xmlns="http://www.w3.org/2000/svg" xmlns:xlink="http://www.w3.org/1999/xlink">
<g id="graph0" class="graph" transform="scale(1 1) rotate(0) translate(4 243.78)">
<title>G</title>
<polygon fill="white" stroke="transparent" points="-4,4 -4,-243.78 665.88,-243.78 665.88,4 -4,4"/>
<!-- normal -->
<g id="node1" class="node">
<title>normal</title>
<ellipse fill="none" stroke="black" cx="55.15" cy="-135.72" rx="55.31" ry="36.12"/>
<text text-anchor="middle" x="55.15" y="-145.62" font-family="Noto Sans CJK SC" font-size="12.00">正常跟踪</text>
<text text-anchor="middle" x="55.15" y="-132.62" font-family="Noto Sans CJK SC" font-size="12.00">C ≥ Clow</text>
<text text-anchor="middle" x="55.15" y="-119.62" font-family="Noto Sans CJK SC" font-size="12.00">M ≥ Mmid</text>
</g>
<!-- degraded -->
<g id="node2" class="node">
<title>degraded</title>
<ellipse fill="none" stroke="black" cx="322.75" cy="-203.72" rx="83.38" ry="36.12"/>
<text text-anchor="middle" x="322.75" y="-213.62" font-family="Noto Sans CJK SC" font-size="12.00">降级跟踪</text>
<text text-anchor="middle" x="322.75" y="-200.62" font-family="Noto Sans CJK SC" font-size="12.00">Cstop ≤ C &lt; Clow</text>
<text text-anchor="middle" x="322.75" y="-187.62" font-family="Noto Sans CJK SC" font-size="12.00">或 M 偏低</text>
</g>
<!-- normal&#45;&gt;degraded -->
<g id="edge1" class="edge">
<title>normal&#45;&gt;degraded</title>
<path fill="none" stroke="black" d="M91.04,-163.3C105.22,-173.04 122.27,-182.99 139.31,-188.72 168.22,-198.45 201.09,-203 230.9,-204.87"/>
<polygon fill="black" stroke="black" points="231.07,-207.69 239.21,-205.34 231.38,-202.1 231.07,-207.69"/>
<text text-anchor="middle" x="174.81" y="-216.72" font-family="Noto Sans CJK SC" font-size="10.00">置信度下降</text>
<text text-anchor="middle" x="174.81" y="-205.72" font-family="Noto Sans CJK SC" font-size="10.00">或安全裕度降低</text>
</g>
<!-- stop -->
<g id="node3" class="node">
<title>stop</title>
<ellipse fill="none" stroke="black" cx="597.53" cy="-95.72" rx="64.19" ry="36.12"/>
<text text-anchor="middle" x="597.53" y="-105.62" font-family="Noto Sans CJK SC" font-size="12.00">安全停车</text>
<text text-anchor="middle" x="597.53" y="-92.62" font-family="Noto Sans CJK SC" font-size="12.00">C &lt; Cstop</text>
<text text-anchor="middle" x="597.53" y="-79.62" font-family="Noto Sans CJK SC" font-size="12.00">或 M &lt; Mstop</text>
</g>
<!-- normal&#45;&gt;stop -->
<g id="edge5" class="edge">
<title>normal&#45;&gt;stop</title>
<path fill="none" stroke="black" d="M110.24,-131.12C146.7,-128.07 195.88,-124.02 239.31,-120.72 338.54,-113.19 453.35,-105.3 525.46,-100.45"/>
<polygon fill="black" stroke="black" points="525.81,-103.23 533.6,-99.9 525.43,-97.64 525.81,-103.23"/>
<text text-anchor="middle" x="322.75" y="-134.72" font-family="Noto Sans CJK SC" font-size="10.00">突发危险</text>
<text text-anchor="middle" x="322.75" y="-123.72" font-family="Noto Sans CJK SC" font-size="10.00">M &lt; Mstop</text>
</g>
<!-- degraded&#45;&gt;normal -->
<g id="edge2" class="edge">
<title>degraded&#45;&gt;normal</title>
<path fill="none" stroke="black" d="M250.54,-185.49C207.99,-174.6 154.61,-160.93 114.56,-150.68"/>
<polygon fill="black" stroke="black" points="115.18,-147.94 106.74,-148.67 113.79,-153.37 115.18,-147.94"/>
<text text-anchor="middle" x="174.81" y="-176.72" font-family="Noto Sans CJK SC" font-size="10.00">C 恢复且 M 充足</text>
</g>
<!-- degraded&#45;&gt;stop -->
<g id="edge3" class="edge">
<title>degraded&#45;&gt;stop</title>
<path fill="none" stroke="black" d="M386.08,-179.9C420.9,-166.5 465.03,-149.37 504.19,-133.72 515.04,-129.38 526.59,-124.69 537.7,-120.14"/>
<polygon fill="black" stroke="black" points="538.98,-122.64 545.32,-117.01 536.86,-117.46 538.98,-122.64"/>
<text text-anchor="middle" x="469.69" y="-172.72" font-family="Noto Sans CJK SC" font-size="10.00">低质量持续超限</text>
<text text-anchor="middle" x="469.69" y="-161.72" font-family="Noto Sans CJK SC" font-size="10.00">或安全裕度不足</text>
</g>
<!-- stop&#45;&gt;normal -->
<g id="edge4" class="edge">
<title>stop&#45;&gt;normal</title>
<path fill="none" stroke="black" d="M552.17,-69.78C514.69,-49.46 458.85,-22.83 406.19,-11.72 333.61,3.58 311.76,4.14 239.31,-11.72 191.52,-22.19 179.9,-30.41 139.31,-57.72 121.92,-69.42 104.69,-84.79 90.47,-98.78"/>
<polygon fill="black" stroke="black" points="88.24,-97.05 84.56,-104.68 92.2,-101.01 88.24,-97.05"/>
<text text-anchor="middle" x="322.75" y="-25.72" font-family="Noto Sans CJK SC" font-size="10.00">人工/系统复位</text>
<text text-anchor="middle" x="322.75" y="-14.72" font-family="Noto Sans CJK SC" font-size="10.00">且感知恢复</text>
</g>
</g>
</svg>
